<svg width="46" height="50" viewBox="0 0 46 50" fill="none" xmlns="http://www.w3.org/2000/svg">
<g clip-path="url(#clip0)">
<path d="M19.3713 6.5332L21.6287 4.36523C22.5846 3.44727 24.1302 3.44727 25.0759 4.36523L44.8438 23.3398C45.7996 24.2578 45.7996 25.7422 44.8438 26.6504L25.0759 45.6348C24.12 46.5527 22.5744 46.5527 21.6287 45.6348L19.3713 43.4668C18.4053 42.5391 18.4256 41.0254 19.412 40.1172L31.6652 28.9063H2.44048C1.08805 28.9063 0 27.8613 0 26.5625V23.4375C0 22.1387 1.08805 21.0938 2.44048 21.0938H31.6652L19.412 9.88281C18.4154 8.97461 18.3951 7.46094 19.3713 6.5332Z" fill="#DEF100"/>
</g>
<defs>
<clipPath id="clip0">
<rect width="45.5556" height="50" fill="white"/>
</clipPath>
</defs>
</svg>
