<svg width="46" height="44" viewBox="0 0 46 44" fill="none" xmlns="http://www.w3.org/2000/svg">
<path d="M19.3713 3.5332L21.6287 1.36523C22.5846 0.447266 24.1302 0.447266 25.0759 1.36523L44.8438 20.3398C45.7996 21.2578 45.7996 22.7422 44.8438 23.6504L25.0759 42.6348C24.12 43.5527 22.5744 43.5527 21.6287 42.6348L19.3713 40.4668C18.4053 39.5391 18.4256 38.0254 19.412 37.1172L31.6652 25.9063H2.44048C1.08805 25.9063 0 24.8613 0 23.5625V20.4375C0 19.1387 1.08805 18.0938 2.44048 18.0938H31.6652L19.412 6.88281C18.4154 5.97461 18.3951 4.46094 19.3713 3.5332Z" fill="#FF47F8" fill-opacity="0.9"/>
</svg>
