<svg width="46" height="50" viewBox="0 0 46 50" fill="none" xmlns="http://www.w3.org/2000/svg">
<g clip-path="url(#clip0)">
<path d="M26.1844 43.4668L23.9269 45.6348C22.9711 46.5527 21.4254 46.5527 20.4797 45.6348L0.711885 26.6602C-0.243968 25.7422 -0.243968 24.2578 0.711885 23.3496L20.4797 4.36523C21.4356 3.44727 22.9812 3.44727 23.9269 4.36523L26.1844 6.5332C27.1504 7.46094 27.13 8.97461 26.1437 9.88281L13.8905 21.0938H43.1152C44.4676 21.0938 45.5556 22.1387 45.5556 23.4375V26.5625C45.5556 27.8613 44.4676 28.9063 43.1152 28.9063H13.8905L26.1437 40.1172C27.1402 41.0254 27.1606 42.5391 26.1844 43.4668Z" fill="#DEF100"/>
</g>
<defs>
<clipPath id="clip0">
<rect width="45.5556" height="50" fill="white"/>
</clipPath>
</defs>
</svg>
