<svg width="247" height="282" viewBox="0 0 247 282" fill="none" xmlns="http://www.w3.org/2000/svg">
<path d="M173.567 173.817C132.998 213.953 110.513 259.366 55.5221 241.719C21.4517 230.785 7.63852 208.985 13.304 191.331C24.582 156.187 53.203 171.723 82.7805 142.462C123.35 102.327 139.39 50.2245 194.381 67.8716C228.451 78.8051 239.537 99.73 233.871 117.384C226.981 138.856 206.446 141.213 173.567 173.817Z" fill="#FF47F8" fill-opacity="0.9"/>
<path d="M172.468 150.63C130.628 189.581 106.682 234.373 52.3255 215.009C18.6484 203.012 5.56265 180.754 11.7995 163.246C24.215 128.395 52.2979 144.834 82.8013 116.437C124.641 77.4861 142.368 25.7966 196.724 45.1604C230.401 57.1575 240.791 78.4553 234.554 95.9628C226.969 117.256 206.378 118.986 172.468 150.63Z" fill="#DEF100"/>
</svg>
