<svg width="206" height="207" viewBox="0 0 206 207" fill="none" xmlns="http://www.w3.org/2000/svg">
<path d="M87.7296 24.0857C97.8533 15.0764 109.928 16.1623 114.7 17.8314C137.394 22.2833 143.099 49.7431 142.185 56.4718C141.272 63.2005 144.401 81.12 161.528 82.6393C178.655 84.1585 187.05 110.21 184.062 125.686C181.074 141.163 155.451 151.148 137.895 148.038C120.339 144.929 117.169 163.525 95.7668 172.712C74.3643 181.899 50.3057 155.634 48.1031 144.634C44.6679 127.479 72.1226 112.906 32.8484 102.011C18.4777 98.0244 21.4579 78.1326 31.4827 67.2395C41.5074 56.3463 62.9807 63.8572 74.5349 53.5749C86.0892 43.2925 75.0749 35.3474 87.7296 24.0857Z" fill="#DEF100"/>
<path d="M129.214 93.5197C132.696 107.112 118.479 114.899 107.677 122.796C100.984 127.689 94.202 124.865 91.8962 123.037C81.6594 114.921 84.1083 108.894 84.2476 101.538C84.4387 91.4485 85.69 85.6159 96.4922 77.7185C103.185 72.8256 109.012 72.8689 114.045 79.7534C119.078 86.638 124.506 83.5676 129.214 93.5197Z" fill="#FF47F8" fill-opacity="0.9"/>
</svg>
