<svg width="29" height="31" viewBox="0 0 29 31" fill="none" xmlns="http://www.w3.org/2000/svg">
<g clip-path="url(#clip0)">
<path d="M14.5064 8.53696C10.3895 8.53696 7.06872 11.643 7.06872 15.4938C7.06872 19.3446 10.3895 22.4506 14.5064 22.4506C18.6234 22.4506 21.9442 19.3446 21.9442 15.4938C21.9442 11.643 18.6234 8.53696 14.5064 8.53696ZM14.5064 20.0166C11.8459 20.0166 9.67095 17.9883 9.67095 15.4938C9.67095 12.9993 11.8395 10.9709 14.5064 10.9709C17.1734 10.9709 19.3419 12.9993 19.3419 15.4938C19.3419 17.9883 17.1669 20.0166 14.5064 20.0166ZM23.9832 8.25239C23.9832 9.15454 23.2064 9.87505 22.2484 9.87505C21.2839 9.87505 20.5136 9.14849 20.5136 8.25239C20.5136 7.3563 21.2904 6.62974 22.2484 6.62974C23.2064 6.62974 23.9832 7.3563 23.9832 8.25239ZM28.9093 9.89927C28.7993 7.72564 28.2685 5.80024 26.566 4.21392C24.87 2.62759 22.8116 2.1311 20.4877 2.02212C18.0926 1.89497 10.9138 1.89497 8.51871 2.02212C6.20131 2.12505 4.14283 2.62153 2.44037 4.20786C0.737918 5.79419 0.213588 7.71958 0.0970702 9.89321C-0.0388672 12.1334 -0.0388672 18.8481 0.0970702 21.0883C0.207115 23.262 0.737918 25.1874 2.44037 26.7737C4.14283 28.36 6.19483 28.8565 8.51871 28.9655C10.9138 29.0926 18.0926 29.0926 20.4877 28.9655C22.8116 28.8625 24.87 28.3661 26.566 26.7737C28.262 25.1874 28.7928 23.262 28.9093 21.0883C29.0453 18.8481 29.0453 12.1395 28.9093 9.89927ZM25.8151 23.492C25.3102 24.6788 24.3328 25.593 23.0575 26.0713C21.1479 26.7797 16.6167 26.6163 14.5064 26.6163C12.3962 26.6163 7.85845 26.7737 5.95532 26.0713C4.68657 25.5991 3.70912 24.6848 3.19774 23.492C2.44037 21.7059 2.61515 17.4676 2.61515 15.4938C2.61515 13.52 2.44685 9.27563 3.19774 7.49556C3.70265 6.30884 4.6801 5.39458 5.95532 4.91626C7.86492 4.20786 12.3962 4.37134 14.5064 4.37134C16.6167 4.37134 21.1544 4.21392 23.0575 4.91626C24.3263 5.38853 25.3037 6.30278 25.8151 7.49556C26.5725 9.28169 26.3977 13.52 26.3977 15.4938C26.3977 17.4676 26.5725 21.712 25.8151 23.492Z" fill="#DEF100"/>
</g>
<defs>
<clipPath id="clip0">
<rect width="29" height="31" fill="white"/>
</clipPath>
</defs>
</svg>
