<svg width="197" height="25" viewBox="0 0 197 25" fill="none" xmlns="http://www.w3.org/2000/svg">
<path d="M4.48599 18.1855C6.51443 11.3711 9.63512 6.89655 12.7168 6.89655C13.9261 6.89655 14.3161 7.63547 14.3161 8.41543C14.3161 11.1658 10.4543 13.2184 10.4543 18.8834C10.4543 20.2791 10.6884 22.3727 11.7806 24.5895H13.0289L14.9403 18.1445C17.0077 11.1248 20.2845 6.89655 23.5612 6.89655C24.7704 6.89655 25.6286 7.55337 25.6286 8.82594C25.6286 13.1363 20.2845 15.2299 20.2845 20.7307C20.2845 22.8243 21.5327 24.1379 22.9761 24.9179L23.9123 23.7274C23.2101 23.3169 22.82 22.9064 22.82 22.2906C22.82 19.335 29.1004 17.2003 29.1004 10.1396C29.1004 7.18391 27.5401 4.6798 24.2633 4.6798C21.1426 4.6798 19.1532 6.28079 17.7099 9.23645C17.7099 6.73235 16.6177 4.6798 13.3799 4.6798C10.1812 4.6798 7.99676 6.8555 6.55344 9.85222C6.78749 7.84072 6.47542 5.74713 5.14913 4.80296L4.05689 5.13136C4.25194 5.50082 4.48599 6.15764 4.48599 6.81445C4.48599 10.2627 0 12.931 0 19.0887C0 20.5255 0.312069 22.4548 1.32629 24.5895H2.57457L4.48599 18.1855Z" fill="#F8F8F8"/>
<path d="M31.3778 18.2677C31.3778 22.578 33.7964 25 37.8533 25C43.8606 25 49.0487 17.4466 49.0487 11.4122C49.0487 7.18391 46.6302 4.6798 42.5733 4.6798C36.566 4.6798 31.3778 12.2332 31.3778 18.2677ZM43.4315 15.1067C41.7931 19.2529 41.325 23.358 37.7362 23.358C35.5127 23.358 34.4985 22.0033 34.4985 20.4844C34.4985 18.6371 35.6688 17.9392 36.9951 14.5731C38.6334 10.4269 39.0625 6.32184 42.6513 6.32184C44.8748 6.32184 45.928 7.67652 45.928 9.1954C45.928 11.0427 44.7578 11.7406 43.4315 15.1067Z" fill="#F8F8F8"/>
<path d="M56.4094 18.0213C58.2038 11.9869 61.2465 6.89655 64.6012 6.89655C65.9666 6.89655 66.7857 7.63547 66.7857 8.86699C66.7857 13.1773 61.4416 15.2709 61.4416 20.7307C61.4416 22.8654 62.6898 24.179 64.1331 24.9179L65.0694 23.7274C64.3672 23.358 63.9771 22.9475 63.9771 22.2906C63.9771 19.376 70.2575 17.2414 70.2575 10.1396C70.2575 7.18391 68.6191 4.6798 65.2254 4.6798C62.1827 4.6798 59.9202 6.81445 58.4379 9.85222C58.6719 7.43021 58.2819 5.78818 57.0336 4.80296L55.9413 5.13136C56.2534 5.70608 56.3704 6.40394 56.3704 6.7734C56.3704 10.3859 51.8845 12.931 51.8845 18.8424C51.8845 20.8128 52.2745 22.7011 53.2107 24.5895H54.459L56.4094 18.0213Z" fill="#F8F8F8"/>
<path d="M86.2888 11.6585C84.4944 17.6929 81.6078 22.8243 78.136 22.8243C76.7707 22.8243 75.9125 22.0443 75.9125 20.8128C75.9125 16.6667 81.2567 14.491 81.2567 8.78489C81.2567 6.65025 80.4375 5.54187 79.1112 4.72085L78.136 5.50082C78.5261 5.78818 78.8382 6.19869 78.8382 6.8555C78.8382 9.89327 72.4408 12.9721 72.4408 19.5402C72.4408 22.4959 74.0791 25 77.4729 25C80.5155 25 82.778 22.8654 84.2604 19.8276C84.0263 22.2496 84.4164 23.8916 85.6647 24.8768L86.7569 24.5484C86.4448 23.9737 86.3278 23.2759 86.3278 22.9064C86.3278 19.2939 90.8138 16.7488 90.8138 10.8374C90.8138 8.86699 90.4237 6.9376 89.4875 5.04926H88.2392L86.2888 11.6585Z" fill="#F8F8F8"/>
<path d="M107.08 18.1445H105.559C105.364 21.5107 103.842 23.0296 100.488 23.0296C98.1861 23.0296 96.7818 21.9212 96.7818 19.9507C96.7818 18.2266 97.3669 17.775 98.6542 14.9425C102.165 15.0246 104.623 14.7783 106.417 14.1626C108.64 13.4236 110.162 11.6174 110.162 9.2775C110.162 6.52709 108.289 4.6798 104.857 4.6798C99.5124 4.6798 93.7001 11.0016 93.7001 17.6108C93.7001 22.0033 95.6896 25 100.449 25C104.623 25 107.314 22.4548 107.08 18.1445ZM104.388 6.23974C106.3 6.23974 106.573 8.00493 105.715 10.3859C105.442 11.0837 105.052 12.2332 103.92 12.89C102.672 13.6289 100.488 13.6289 99.1223 13.6289C101.346 8.74384 101.775 6.23974 104.388 6.23974Z" fill="#F8F8F8"/>
<path d="M116.94 18.1855C118.969 11.3711 122.09 6.89655 125.171 6.89655C126.38 6.89655 126.771 7.63547 126.771 8.41543C126.771 11.1658 122.909 13.2184 122.909 18.8834C122.909 20.2791 123.143 22.3727 124.235 24.5895H125.483L127.395 18.1445C129.462 11.1248 132.739 6.89655 136.016 6.89655C137.225 6.89655 138.083 7.55337 138.083 8.82594C138.083 13.1363 132.739 15.2299 132.739 20.7307C132.739 22.8243 133.987 24.1379 135.43 24.9179L136.367 23.7274C135.665 23.3169 135.274 22.9064 135.274 22.2906C135.274 19.335 141.555 17.2003 141.555 10.1396C141.555 7.18391 139.994 4.6798 136.718 4.6798C133.597 4.6798 131.608 6.28079 130.164 9.23645C130.164 6.73235 129.072 4.6798 125.834 4.6798C122.636 4.6798 120.451 6.8555 119.008 9.85222C119.242 7.84072 118.93 5.74713 117.604 4.80296L116.511 5.13136C116.706 5.50082 116.94 6.15764 116.94 6.81445C116.94 10.2627 112.454 12.931 112.454 19.0887C112.454 20.5255 112.766 22.4548 113.781 24.5895H115.029L116.94 18.1855Z" fill="#F8F8F8"/>
<path d="M157.212 18.1445H155.691C155.496 21.5107 153.974 23.0296 150.62 23.0296C148.318 23.0296 146.914 21.9212 146.914 19.9507C146.914 18.2266 147.499 17.775 148.786 14.9425C152.297 15.0246 154.755 14.7783 156.549 14.1626C158.773 13.4236 160.294 11.6174 160.294 9.2775C160.294 6.52709 158.421 4.6798 154.989 4.6798C149.645 4.6798 143.832 11.0016 143.832 17.6108C143.832 22.0033 145.822 25 150.581 25C154.755 25 157.446 22.4548 157.212 18.1445ZM154.521 6.23974C156.432 6.23974 156.705 8.00493 155.847 10.3859C155.574 11.0837 155.184 12.2332 154.052 12.89C152.804 13.6289 150.62 13.6289 149.254 13.6289C151.478 8.74384 151.907 6.23974 154.521 6.23974Z" fill="#F8F8F8"/>
<path d="M167.112 18.0213C168.906 11.9869 171.949 6.89655 175.303 6.89655C176.669 6.89655 177.488 7.63547 177.488 8.86699C177.488 13.1773 172.144 15.2709 172.144 20.7307C172.144 22.8654 173.392 24.179 174.835 24.9179L175.771 23.7274C175.069 23.358 174.679 22.9475 174.679 22.2906C174.679 19.376 180.96 17.2414 180.96 10.1396C180.96 7.18391 179.321 4.6798 175.927 4.6798C172.885 4.6798 170.622 6.81445 169.14 9.85222C169.374 7.43021 168.984 5.78818 167.736 4.80296L166.643 5.13136C166.955 5.70608 167.073 6.40394 167.073 6.7734C167.073 10.3859 162.587 12.931 162.587 18.8424C162.587 20.8128 162.977 22.7011 163.913 24.5895H165.161L167.112 18.0213Z" fill="#F8F8F8"/>
<path d="M183.542 19.335C183.542 22.4959 185.414 25 189.237 25C193.333 25 194.894 21.757 194.386 18.1445H192.982C192.982 21.5517 191.851 23.1527 189.744 23.1527C188.34 23.1527 187.716 22.2496 187.716 20.8949C187.716 16.2151 191.656 11.6995 192.631 6.73235H197V5.09031H192.826C192.826 4.96716 192.826 4.80296 192.826 4.6798C192.826 3.16092 192.67 1.43678 191.656 0L190.486 0.328408C190.603 0.697866 190.837 1.55993 190.837 2.422C190.837 3.36617 190.681 4.22824 190.408 5.09031H186.078V6.73235H189.783C187.794 11.0837 183.542 14.7373 183.542 19.335Z" fill="#F8F8F8"/>
</svg>
