<svg width="22" height="24" viewBox="0 0 22 24" fill="none" xmlns="http://www.w3.org/2000/svg">
<path d="M17.2857 7.5V6C17.2857 2.69156 14.4659 0 11 0C7.53402 0 4.71429 2.69156 4.71429 6V7.5H0V20.25C0 22.3211 1.75887 24 3.92857 24H18.0714C20.2411 24 22 22.3211 22 20.25V7.5H17.2857ZM7.85714 6C7.85714 4.34578 9.26701 3 11 3C12.733 3 14.1429 4.34578 14.1429 6V7.5H7.85714V6ZM15.7143 11.625C15.0634 11.625 14.5357 11.1213 14.5357 10.5C14.5357 9.87867 15.0634 9.375 15.7143 9.375C16.3652 9.375 16.8929 9.87867 16.8929 10.5C16.8929 11.1213 16.3652 11.625 15.7143 11.625ZM6.28571 11.625C5.6348 11.625 5.10714 11.1213 5.10714 10.5C5.10714 9.87867 5.6348 9.375 6.28571 9.375C6.93663 9.375 7.46429 9.87867 7.46429 10.5C7.46429 11.1213 6.93663 11.625 6.28571 11.625Z" fill="#FF47F8" fill-opacity="0.9"/>
</svg>
