<svg width="169" height="27" viewBox="0 0 169 27" fill="none" xmlns="http://www.w3.org/2000/svg">
<path d="M5 14.5C17.2667 1.83333 24.9333 1.83333 28 14.5C31.0667 27.1667 38.7333 27.1667 51 14.5C63.2667 1.83333 70.9333 1.83333 74 14.5C77.0667 27.1667 84.7333 27.1667 97 14.5C109.267 1.83333 116.933 1.83333 120 14.5C123.067 27.1667 130.733 27.1667 143 14.5C155.267 1.83333 162.933 1.83333 166 14.5" stroke="#FF47F8" stroke-opacity="0.9" stroke-width="5" stroke-linecap="round"/>
<path d="M3 12C15.2667 -2.87005e-07 22.9333 -2.87005e-07 26 12C29.0667 24 36.7333 24 49 12C61.2667 -2.87005e-07 68.9333 -2.87005e-07 72 12C75.0667 24 82.7333 24 95 12C107.267 -2.87005e-07 114.933 -2.87005e-07 118 12C121.067 24 128.733 24 141 12C153.267 -2.87005e-07 160.933 -2.87005e-07 164 12" stroke="#DEF100" stroke-width="5" stroke-linecap="round"/>
</svg>
