<svg width="28" height="27" viewBox="0 0 28 27" fill="none" xmlns="http://www.w3.org/2000/svg">
<path d="M25.1218 7.18585C25.1396 7.46122 25.1396 7.73664 25.1396 8.01201C25.1396 16.4111 19.3655 26.0888 8.81218 26.0888C5.5609 26.0888 2.54062 25.0462 0 23.2366C0.461945 23.2956 0.906062 23.3153 1.38578 23.3153C4.06848 23.3153 6.53805 22.3122 8.51014 20.6009C5.9873 20.5418 3.87308 18.7125 3.14464 16.1947C3.5 16.2537 3.8553 16.2931 4.22844 16.2931C4.74365 16.2931 5.25891 16.2144 5.73858 16.0767C3.10915 15.4866 1.13701 12.9295 1.13701 9.84131V9.76266C1.90094 10.2347 2.78934 10.5298 3.73089 10.5691C2.1852 9.4282 1.17255 7.48089 1.17255 5.27783C1.17255 4.09765 1.45677 3.0158 1.95426 2.07163C4.77914 5.92696 9.02535 8.44468 13.7867 8.72011C13.6979 8.24802 13.6446 7.75632 13.6446 7.26456C13.6446 3.76325 16.203 0.911133 19.3832 0.911133C21.0354 0.911133 22.5278 1.67826 23.5761 2.91747C24.873 2.64211 26.1166 2.11099 27.2182 1.38322C26.7917 2.8585 25.8857 4.09772 24.6953 4.88446C25.8502 4.74684 26.9695 4.3927 27.9999 3.901C27.2183 5.15983 26.2411 6.28098 25.1218 7.18585Z" fill="#DEF100"/>
</svg>
